<?xml version="1.0" encoding="utf-8"?>
<!-- Svg Vector Icons : http://www.onlinewebfonts.com/icon -->
<!DOCTYPE svg PUBLIC "-//W3C//DTD SVG 1.1//EN" "http://www.w3.org/Graphics/SVG/1.1/DTD/svg11.dtd">
<svg version="1.1" xmlns="http://www.w3.org/2000/svg" xmlns:xlink="http://www.w3.org/1999/xlink" x="0px" y="0px" viewBox="0 0 1000 1000" width="35px" height="35px" enable-background="new 0 0 1000 1000"  fill="#157EFB" xml:space="preserve">
<metadata> Svg Vector Icons : http://www.onlinewebfonts.com/icon </metadata>
<g><g transform="translate(0.000000,512.000000) scale(0.100000,-0.100000)"><path d="M4703.5,5008.6c-333.3-53.6-676.3-191.6-961.7-387c-404.2-275.9-789.3-789.3-971.3-1295c-457.9-1274-30.6-2730,1005.8-3435c251-168.6,662.9-329.5,921.5-356.3c59.4-5.7,116.9-17.2,130.3-24.9c15.3-9.6,0-59.4-55.6-168.6c-118.8-233.7-101.5-291.2,82.4-291.2c84.3,0,88.1-1.9,105.4-70.9c59.4-218.4,82.4-480.8,72.8-791.2c-7.7-275.9-17.2-344.8-70.9-546c-218.4-829.5-243.3-975.1-222.2-1396.6c19.2-413.8,105.4-927.2,168.6-1001.9c26.8-34.5,82.4-30.6,111.1,3.8c21.1,24.9,15.3,67.1-24.9,235.6c-74.7,304.6-97.7,511.5-97.7,894.7c0,390.8,5.7,434.9,151.3,986.6c57.5,216.5,115,457.9,126.4,536.4c30.7,203.1,11.5,766.3-34.5,982.8l-36.4,166.7h65.1c90,0,137.9,30.6,137.9,88.1c0,24.9-34.5,116.9-78.6,203.1c-55.5,109.2-70.9,159-55.5,168.6c13.4,7.7,70.9,19.2,130.3,24.9c249.1,26.8,672.4,187.7,900.4,341c413.8,281.6,733.7,672.5,952.1,1157.1c362.1,812.3,339.1,1802.7-57.5,2595.8c-356.3,710.8-956,1197.4-1666.7,1352.5C5268.7,5018.2,4860.6,5031.6,4703.5,5008.6z"/></g></g>
</svg>
