
<svg width="30px" height="33px" viewBox="0 0 60 77" version="1.1" xmlns="http://www.w3.org/2000/svg" xmlns:xlink="http://www.w3.org/1999/xlink">
    <!-- Generator: Sketch 46.2 (44496) - http://www.bohemiancoding.com/sketch -->
    <desc>Created with Sketch.</desc>
    <defs>
        <path d="M41.3541215,52.2789087 L30,68 L18.6458785,52.2789087 C10.5459886,48.1426656 5,39.7190003 5,30 C5,16.1928813 16.1928813,5 30,5 C43.8071187,5 55,16.1928813 55,30 C55,39.7190003 49.4540114,48.1426656 41.3541215,52.2789087 Z" id="path-1"></path>
    </defs>
    <g id="Page-1" stroke="none" stroke-width="1" fill="none" fill-rule="evenodd">
        <g id="Combined-Shape">
            <use fill="#4AB169" fill-rule="evenodd" xlink:href="#path-1"></use>
            <path stroke="#FFD83B" stroke-width="5" d="M43.0367213,54.2190788 L30,72.2699237 L16.9632787,54.2190788 C8.14115577,49.4634744 2.5,40.2336832 2.5,30 C2.5,14.8121694 14.8121694,2.5 30,2.5 C45.1878306,2.5 57.5,14.8121694 57.5,30 C57.5,40.2336832 51.8588442,49.4634744 43.0367213,54.2190788 Z"></path>
        </g>
        <g id="light" transform="translate(18.000000, 10.000000)" fill-rule="nonzero" fill="#FFD83B">
            <polygon id="Shape" points="25 16.1960827 12.6527659 16.1960827 18.8089623 0 0 24.8039173 12.3472341 24.8039173 6.19103774 41"></polygon>
        </g>
    </g>
</svg>
